<svg xmlns="http://www.w3.org/2000/svg" viewBox="0 0 128 128">
  <linearGradient id="python-a" x1=".34" y1=".13" x2=".94" y2=".84" gradientUnits="objectBoundingBox">
    <stop offset="0" stop-color="#387EB8"/>
    <stop offset="1" stop-color="#366994"/>
  </linearGradient>
  <linearGradient id="python-b" x1=".06" y1=".16" x2=".66" y2=".86" gradientUnits="objectBoundingBox">
    <stop offset="0" stop-color="#FFE052"/>
    <stop offset="1" stop-color="#FFC331"/>
  </linearGradient>
  <path fill="url(#python-a)" d="M63.56 2.09c-15.15 0-14.2 6.58-14.2 6.58l.02 6.67h14.45v2H45.57S31.68 15.05 31.68 30.65s2.65 16.31 2.65 16.31h4.85v-7.84c0-4.38 4.05-8.26 8.91-8.26h14.41c3.96 0 7.09-3.28 7.09-7.18V9.99s1.06-7.9-11.03-7.9zM51.69 6.89c1.86 0 3.37 1.55 3.37 3.46s-1.51 3.44-3.37 3.44-3.37-1.53-3.37-3.44 1.51-3.46 3.37-3.46z"/>
  <path fill="url(#python-b)" d="M64 125.91c15.15 0 14.2-6.58 14.2-6.58l-.02-6.67H63.73v-2h16.7s13.89 1.34 13.89-14.26-2.65-16.31-2.65-16.31H86.62v7.84c0 4.38-4.07 8.27-8.93 8.27H63.27c-3.96 0-7.06 3.27-7.06 7.18v13.46s-1.09 7.9 11.03 7.9h-3.24zm11.82-4.82c-1.86 0-3.37-1.55-3.37-3.46s1.51-3.44 3.37-3.44 3.37 1.53 3.37 3.44-1.51 3.46-3.37 3.46z"/>
  <radialGradient id="python-c" cx="31.06" cy="23.92" r="29.47" gradientUnits="userSpaceOnUse">
    <stop offset="0" stop-color="#B8CBEA"/>
    <stop offset="1" stop-color="#387EB8"/>
  </radialGradient>
  <radialGradient id="python-d" cx="96.87" cy="104.03" r="29.47" gradientUnits="userSpaceOnUse">
    <stop offset="0" stop-color="#FFE873"/>
    <stop offset="1" stop-color="#FFC331"/>
  </radialGradient>
</svg>
